<?xml version="1.0" standalone="no"?>
<!DOCTYPE svg PUBLIC "-//W3C//DTD SVG 20010904//EN"
 "http://www.w3.org/TR/2001/REC-SVG-20010904/DTD/svg10.dtd">
<svg version="1.0" xmlns="http://www.w3.org/2000/svg"
 width="465.000000pt" height="465.000000pt" viewBox="0 0 465.000000 465.000000"
 preserveAspectRatio="xMidYMid meet">
<metadata>
Created by potrace 1.14, written by Peter Selinger 2001-2017
</metadata>
<g transform="translate(0.000000,465.000000) scale(0.100000,-0.100000)"
fill="#000000" stroke="none">
<path d="M2105 4643 c-662 -71 -1238 -394 -1642 -923 -211 -278 -378 -666
-432 -1010 -6 -36 -13 -83 -17 -105 -3 -22 -7 -132 -9 -245 -3 -184 2 -276 19
-385 3 -19 9 -52 12 -72 10 -64 63 -264 91 -343 64 -184 153 -362 261 -523 81
-121 96 -134 30 -24 -135 223 -271 570 -327 837 -39 183 -49 295 -45 510 2
113 5 217 8 232 2 16 7 47 11 70 4 24 8 54 11 68 11 68 67 276 97 360 38 107
112 271 139 312 10 14 18 29 18 32 0 23 203 315 265 382 246 266 450 423 730
562 209 103 497 188 770 227 22 4 47 8 55 10 27 7 192 18 287 19 50 1 86 4 80
8 -11 7 -349 8 -412 1z"/>
<path d="M2400 4354 c-41 -14 -59 -29 -80 -66 -28 -50 -25 -129 8 -175 41 -58
140 -63 190 -10 59 63 47 193 -20 236 -21 13 -77 22 -98 15z m83 -52 c23 -20
39 -81 31 -121 -21 -104 -150 -109 -170 -6 -20 110 66 190 139 127z"/>
<path d="M1992 4283 c5 -27 11 -59 14 -73 3 -14 9 -40 14 -57 4 -18 7 -33 5
-33 -2 0 -28 25 -57 56 -106 113 -116 122 -135 120 -23 -4 -23 -7 6 -153 21
-106 27 -123 44 -123 21 0 20 21 -12 150 l-19 73 92 -96 c64 -68 97 -96 112
-95 21 2 21 2 -8 137 -15 75 -28 137 -28 138 0 2 -8 3 -19 3 -17 0 -18 -4 -9
-47z"/>
<path d="M2664 4186 c-25 -111 -28 -136 -16 -141 22 -8 29 2 36 47 10 66 16
70 67 59 29 -7 47 -7 54 0 13 13 -7 25 -58 33 -38 6 -39 8 -33 38 3 17 6 37 6
45 0 14 10 14 88 -2 25 -6 32 -4 32 8 0 16 -32 28 -110 42 l-35 6 -31 -135z"/>
<path d="M1539 4198 c-65 -39 -81 -122 -38 -197 42 -76 129 -96 194 -47 100
76 23 274 -102 264 -14 -2 -38 -10 -54 -20z m116 -44 c73 -73 52 -194 -34
-194 -56 0 -124 102 -105 156 24 66 93 84 139 38z"/>
<path d="M3048 4071 c-46 -108 -53 -131 -40 -136 22 -8 25 -3 81 130 48 113
51 134 20 135 -3 0 -31 -58 -61 -129z"/>
<path d="M3254 4112 c-6 -9 -26 -44 -44 -77 -18 -33 -44 -77 -57 -97 -12 -21
-23 -44 -23 -51 0 -14 67 -50 113 -61 23 -5 34 -1 59 24 29 30 31 39 17 89 -2
7 4 15 14 16 77 13 65 101 -19 147 -46 25 -51 26 -60 10z m63 -47 c66 -46 2
-110 -66 -66 -12 8 -11 15 10 45 28 41 27 41 56 21z m-43 -121 c37 -36 4 -90
-47 -80 -50 10 -60 24 -39 55 11 14 22 34 25 44 5 14 11 16 26 7 11 -5 27 -17
35 -26z"/>
<path d="M1306 4081 c-3 -5 -3 -18 1 -28 13 -31 126 -223 132 -223 3 0 12 4
19 8 9 6 -5 39 -57 127 -67 117 -83 136 -95 116z"/>
<path d="M1130 3964 c-93 -69 -91 -66 -81 -83 7 -11 16 -8 43 13 l35 26 72
-100 c49 -68 76 -97 86 -93 8 3 15 9 15 14 0 5 -32 53 -70 106 l-70 96 30 21
c29 21 38 40 22 50 -4 2 -41 -20 -82 -50z"/>
<path d="M2189 3946 c-2 -2 -33 -7 -69 -10 -36 -4 -94 -14 -130 -22 -36 -9
-75 -18 -87 -20 -12 -2 -62 -18 -110 -35 -332 -116 -623 -342 -821 -636 -97
-143 -196 -371 -226 -519 -3 -11 -9 -39 -15 -64 -25 -113 -35 -367 -18 -512
68 -610 507 -1149 1094 -1343 178 -59 285 -77 483 -81 157 -2 272 7 378 30
617 136 1100 612 1240 1221 33 144 34 151 37 335 4 161 -2 229 -29 376 -49
265 -226 593 -432 798 -230 230 -538 398 -827 450 -45 9 -95 18 -112 22 -33 6
-350 15 -356 10z"/>
<path d="M3579 3818 c-24 -40 -56 -95 -71 -122 -26 -44 -28 -51 -14 -64 13
-14 25 -9 108 40 51 31 94 55 96 53 2 -1 -22 -44 -54 -95 -51 -82 -55 -93 -42
-107 14 -13 29 -8 142 58 69 40 126 76 126 80 0 4 -7 10 -16 13 -11 4 -50 -14
-106 -49 -50 -30 -92 -55 -95 -55 -3 0 5 15 16 33 12 17 38 60 58 95 31 55 34
66 21 78 -12 12 -27 6 -111 -45 -53 -33 -97 -57 -97 -54 0 3 25 45 56 95 50
82 61 118 35 118 -6 0 -29 -33 -52 -72z"/>
<path d="M4061 3815 c7 -11 30 -40 50 -65 143 -177 273 -405 351 -614 25 -67
58 -164 63 -186 1 -3 11 -48 24 -100 46 -192 56 -284 56 -525 0 -187 -5 -267
-25 -375 -5 -30 -11 -66 -14 -80 -34 -197 -142 -483 -259 -683 -152 -262 -303
-438 -562 -655 -110 -92 -364 -244 -515 -307 -167 -71 -374 -132 -520 -154
-36 -6 -83 -13 -105 -17 -86 -14 -449 -13 -545 1 -117 18 -142 17 -70 0 179
-43 499 -65 625 -42 17 3 64 11 105 17 102 16 247 53 354 90 349 121 637 301
896 560 351 350 569 775 655 1275 16 94 20 172 20 370 0 259 -6 317 -51 520
-29 129 -89 312 -139 419 -19 42 -35 78 -35 81 0 23 -185 286 -255 363 -67 75
-117 126 -104 107z"/>
<path d="M912 3778 c-7 -7 -12 -17 -12 -22 0 -6 29 -69 63 -139 55 -112 65
-127 76 -113 11 13 10 23 -7 58 l-20 43 35 32 c36 33 47 33 91 5 21 -13 25
-13 39 1 14 14 9 19 -58 52 -41 21 -97 50 -126 66 -59 33 -64 34 -81 17z m89
-64 l51 -26 -28 -29 -28 -29 -19 42 c-11 24 -24 49 -29 56 -15 18 -3 15 53
-14z"/>
<path d="M737 3585 c-4 -9 17 -32 61 -67 37 -29 69 -55 72 -58 3 -3 22 -19 43
-35 27 -20 41 -25 49 -17 5 5 7 16 3 22 -10 15 -205 170 -215 170 -4 0 -10 -7
-13 -15z"/>
<path d="M3880 3507 c-101 -26 -160 -138 -108 -205 55 -71 132 -80 206 -25
121 91 46 267 -98 230z m107 -65 c71 -84 -101 -218 -177 -137 -33 35 -23 89
26 132 56 49 112 51 151 5z"/>
<path d="M638 3453 c-32 -35 -41 -57 -43 -109 -3 -55 25 -99 84 -128 91 -45
172 -5 205 102 6 18 4 22 -13 22 -12 0 -21 -6 -21 -15 0 -50 -71 -99 -123 -84
-98 28 -130 117 -66 185 15 16 18 27 12 38 -8 14 -12 13 -35 -11z"/>
<path d="M4104 3211 c-21 -10 -74 -35 -117 -55 -43 -20 -82 -36 -88 -36 -11 0
-11 -11 0 -29 7 -11 19 -9 64 12 l56 25 10 -29 c12 -36 2 -56 -40 -85 -33 -22
-40 -36 -29 -54 7 -11 19 -5 54 24 25 20 46 44 46 51 0 12 6 12 26 4 40 -15
92 6 101 39 11 39 10 44 -5 82 -28 68 -33 72 -78 51z m50 -74 c20 -80 -74 -95
-99 -16 -4 11 -5 21 -3 23 23 14 75 34 83 32 6 -1 14 -19 19 -39z"/>
<path d="M488 3135 c-52 -29 -76 -113 -47 -166 21 -40 61 -68 115 -80 43 -10
56 -9 85 5 43 20 69 62 71 116 1 44 -18 79 -65 114 -35 26 -122 32 -159 11z
m138 -50 c34 -20 45 -33 50 -61 10 -57 -13 -88 -76 -101 -26 -5 -99 28 -120
54 -11 14 -20 37 -20 50 0 78 83 107 166 58z"/>
<path d="M4111 2904 c-62 -18 -115 -35 -117 -36 -1 -2 7 -36 19 -76 16 -54 25
-72 38 -72 17 0 17 3 2 53 -8 28 -17 55 -19 59 -3 4 12 12 33 17 199 55 203
56 203 74 0 24 -24 21 -159 -19z"/>
<path d="M352 2795 c-29 -64 -4 -130 53 -139 25 -5 36 1 76 44 26 28 55 50 66
50 42 0 56 -47 28 -100 -11 -21 -12 -31 -3 -36 14 -9 47 30 49 57 4 61 1 77
-21 99 -12 12 -33 20 -53 20 -28 0 -42 -9 -79 -50 -35 -38 -49 -48 -66 -43
-27 7 -37 40 -22 77 17 46 -8 65 -28 21z"/>
<path d="M4289 2666 c-2 -2 -37 -7 -76 -11 -40 -4 -81 -8 -90 -10 -10 -2 -31
-4 -46 -4 -28 -1 -28 -2 -22 -48 16 -121 53 -165 143 -169 100 -5 154 51 147
153 -5 72 -13 93 -34 93 -10 0 -20 -2 -22 -4z m22 -63 c3 -56 -1 -78 -19 -103
-23 -31 -94 -47 -134 -31 -36 14 -69 68 -66 106 3 25 8 30 33 32 82 6 160 15
164 19 12 11 21 1 22 -23z"/>
<path d="M306 2518 c-13 -49 -6 -89 19 -113 45 -46 86 -30 139 55 12 19 31 36
43 38 28 4 55 -35 47 -68 -10 -42 -9 -63 2 -67 14 -5 34 40 34 78 0 62 -37
101 -90 95 -35 -4 -41 -10 -83 -76 -28 -44 -62 -51 -78 -16 -8 17 -9 33 -1 54
8 25 8 32 -5 36 -20 8 -20 9 -27 -16z"/>
<path d="M540 2280 c-8 -5 -64 -31 -124 -57 -107 -47 -131 -69 -103 -91 11 -8
255 -72 276 -72 5 0 7 9 4 19 -3 13 -20 23 -48 30 -42 11 -43 12 -47 57 -3 47
-3 47 39 66 30 13 43 25 43 38 0 21 -15 25 -40 10z m-70 -119 l0 -39 -43 13
c-23 7 -51 14 -62 16 -14 3 -4 11 35 26 30 12 58 22 63 22 4 1 7 -17 7 -38z"/>
<path d="M4071 2169 c-23 -66 -6 -122 42 -138 46 -17 73 -4 108 50 23 36 37
49 55 49 32 0 46 -29 34 -71 -7 -24 -6 -35 3 -41 18 -11 29 5 34 54 7 57 -23
98 -71 98 -33 0 -56 -18 -89 -72 -24 -38 -56 -46 -79 -18 -18 23 -18 52 1 88
8 16 7 21 -5 26 -22 8 -21 9 -33 -25z"/>
<path d="M4074 1920 c-35 -14 -72 -71 -79 -122 -7 -45 -6 -48 14 -48 12 0 20
4 17 8 -3 5 0 28 6 51 23 89 119 108 196 38 26 -24 30 -83 7 -127 -12 -24 -12
-29 0 -33 26 -10 53 49 50 110 -4 95 -118 161 -211 123z"/>
<path d="M454 1755 c-15 -23 -15 -27 0 -49 8 -14 23 -27 33 -30 11 -3 28 -32
42 -68 81 -214 239 -454 415 -633 267 -270 570 -439 957 -531 221 -53 521 -61
744 -19 56 11 73 11 85 1 26 -22 47 -25 69 -10 39 28 20 94 -28 94 -27 0 -67
-31 -55 -42 7 -7 -16 -14 -76 -23 -25 -4 -53 -9 -62 -10 -116 -22 -395 -22
-518 0 -14 2 -41 6 -60 9 -45 7 -187 42 -266 66 -138 42 -321 131 -467 226
-56 37 -104 69 -107 73 -3 3 -21 19 -40 35 -124 102 -181 159 -303 307 -41 49
-127 176 -127 188 0 5 -4 11 -9 13 -10 4 -99 180 -134 266 -21 52 -23 63 -11
73 19 15 18 54 -2 73 -24 24 -61 20 -80 -9z"/>
<path d="M3946 1655 c-4 -11 10 -23 47 -41 29 -15 54 -28 56 -30 8 -8 -42
-114 -54 -114 -8 0 -35 11 -61 24 -27 14 -52 22 -56 20 -19 -12 -5 -36 27 -49
19 -8 75 -35 125 -59 83 -41 91 -43 100 -27 8 15 1 22 -40 41 -28 13 -50 28
-50 34 0 23 45 106 57 106 8 0 32 -9 55 -21 33 -17 42 -18 49 -7 5 7 9 15 9
19 0 5 -240 119 -251 119 -4 0 -9 -7 -13 -15z"/>
<path d="M3782 1340 c-63 -39 -78 -126 -33 -189 23 -32 94 -71 130 -71 61 0
131 71 125 128 -1 12 -2 29 -3 37 -2 21 -58 82 -89 97 -44 22 -94 21 -130 -2z
m125 -47 c67 -43 82 -104 38 -148 -29 -30 -63 -32 -114 -6 -42 22 -68 55 -75
96 -4 21 2 34 24 56 36 37 73 37 127 2z"/>
<path d="M3583 1092 c-33 -5 -81 -57 -88 -96 -10 -53 3 -94 45 -136 71 -71
170 -62 213 20 52 100 -54 232 -170 212z m74 -50 c37 -20 73 -76 73 -112 0
-106 -142 -104 -190 2 -16 36 -17 46 -6 72 20 50 71 65 123 38z"/>
<path d="M3298 869 c-32 -22 -58 -44 -58 -49 0 -20 19 -17 61 11 24 16 47 29
51 29 5 0 38 -45 74 -100 57 -85 69 -98 85 -90 16 9 10 21 -59 125 -42 63 -81
114 -87 114 -5 0 -36 -18 -67 -40z"/>
<path d="M3099 757 c-43 -29 -56 -65 -40 -106 15 -35 36 -44 104 -46 54 -2 79
-20 71 -51 -6 -21 -42 -44 -69 -44 -8 0 -15 -7 -15 -16 0 -14 7 -15 37 -11 38
7 80 40 83 67 9 64 -24 94 -100 91 -103 -3 -109 79 -7 104 15 4 27 13 27 21 0
22 -53 17 -91 -9z"/>
</g>
</svg>
